####
#
# OBJ File Generated by Meshlab
#
####
# Object switch.obj
#
# Vertices: 71
# Faces: 138
#
####
mtllib ./switch.obj.mtl

vn -0.587712 -0.794006 0.155399
v -0.103281 -0.043236 -0.168338
vn -0.742204 -0.478999 0.468714
v -0.103281 -0.005798 -0.139319
vn -0.741586 -0.587615 0.323664
v -0.103281 0.022601 -0.100988
vn -0.740781 -0.652728 0.158717
v -0.103281 0.040026 -0.055956
vn -0.740017 -0.672458 -0.013193
v -0.103281 0.045290 -0.007292
vn -0.739423 -0.648463 -0.180965
v -0.103281 0.038035 0.041686
vn -0.739284 -0.583893 -0.335454
v -0.103281 0.018754 0.087643
vn -0.739410 -0.482865 -0.469162
v -0.103281 -0.011239 0.127445
vn -0.739982 -0.350151 -0.574301
v -0.103281 -0.049899 0.158380
vn -0.740780 -0.191610 -0.643840
v -0.103281 -0.094592 0.178340
vn -0.590201 -0.609789 -0.528980
v -0.103281 -0.142272 0.185965
vn -0.573818 -0.162951 -0.802608
v -0.102795 -0.014054 -0.219127
vn -0.682522 0.522406 -0.511131
v -0.102795 0.034860 -0.181212
vn -0.682960 0.639851 -0.352358
v -0.102795 0.071965 -0.131130
vn -0.683531 0.709273 -0.172388
v -0.102795 0.094732 -0.072293
vn -0.688378 0.725352 -0.000752
v -0.102795 0.101610 -0.008711
vn -0.839513 0.514474 -0.174741
v -0.102795 0.095444 0.049516
vn -0.995879 0.078243 0.045858
v -0.102795 0.066939 0.115328
vn -0.839487 0.109178 0.532299
v -0.102795 0.024438 0.173099
vn -0.688350 0.364626 0.627074
v -0.102795 -0.022760 0.207751
vn -0.683531 0.208276 0.699576
v -0.102795 -0.081154 0.233830
vn -0.571916 -0.541864 0.615870
v -0.102795 -0.143451 0.243792
vn 0.000233 -0.187162 -0.982329
v 0.001117 -0.012961 -0.221030
vn 0.000306 0.714722 -0.699408
v 0.001117 0.036383 -0.182782
vn 0.000303 0.875897 -0.482498
v 0.001117 0.073814 -0.132259
vn 0.000299 0.971676 -0.236317
v 0.001117 0.096782 -0.072905
vn 0.000296 0.999999 -0.001158
v 0.001117 0.103720 -0.008764
vn 0.000241 0.909400 -0.415923
v 0.001117 0.097500 0.049975
vn 0.000073 0.867071 0.498185
v 0.000811 0.239082 0.214235
vn 0.000321 0.098585 0.995129
v 0.001117 0.025870 0.174644
vn 0.000296 0.502623 0.864506
v 0.001117 -0.021743 0.209600
vn 0.000299 0.285199 0.958468
v 0.001117 -0.080651 0.235909
vn 0.000234 -0.651649 0.758520
v 0.001117 -0.143495 0.245959
vn 0.572008 -0.162486 -0.803993
v 0.102083 -0.014054 -0.219127
vn 0.680509 0.523740 -0.512448
v 0.102083 0.034860 -0.181212
vn 0.680920 0.641510 -0.353288
v 0.102083 0.071965 -0.131130
vn 0.681455 0.711153 -0.172861
v 0.102083 0.094732 -0.072293
vn 0.686221 0.727392 -0.000809
v 0.102083 0.101610 -0.008711
vn 0.838121 0.517404 -0.172762
v 0.102083 0.095444 0.049516
vn 0.995662 0.081065 0.045674
v 0.102083 0.066939 0.115328
vn 0.838195 0.110165 0.534128
v 0.102083 0.024438 0.173099
vn 0.686271 0.365684 0.628734
v 0.102083 -0.022760 0.207751
vn 0.681455 0.208814 0.701439
v 0.102083 -0.081154 0.233830
vn 0.570109 -0.542155 0.617287
v 0.102083 -0.143451 0.243792
vn 0.589913 -0.792643 0.154013
v 0.102958 -0.043236 -0.168338
vn 0.744637 -0.477058 0.466832
v 0.102958 -0.005798 -0.139319
vn 0.744041 -0.585219 0.322369
v 0.102958 0.022601 -0.100988
vn 0.743266 -0.650048 0.158091
v 0.102958 0.040026 -0.055956
vn 0.742469 -0.669749 -0.013260
v 0.102958 0.045290 -0.007292
vn 0.741889 -0.645893 -0.180063
v 0.102958 0.038035 0.041686
vn 0.741821 -0.581434 -0.334120
v 0.102958 0.018754 0.087643
vn 0.741913 -0.480948 -0.467178
v 0.102958 -0.011239 0.127445
vn 0.742533 -0.348599 -0.571947
v 0.102958 -0.049899 0.158380
vn 0.743266 -0.190801 -0.641210
v 0.102958 -0.094592 0.178340
vn 0.592473 -0.609279 -0.527025
v 0.102958 -0.142272 0.185965
vn -0.987135 0.138237 0.080338
v -0.073745 0.219442 0.202951
vn 0.000100 0.578330 -0.815803
v 0.000844 0.245814 0.154829
vn 0.000189 -0.413436 0.910533
v 0.000844 0.191151 0.249969
vn 0.987398 0.137608 0.078162
v 0.073330 0.219442 0.202951
vn -0.693837 -0.194567 0.693350
v -0.073745 0.191071 0.249382
vn 0.693155 -0.194706 0.693993
v 0.073330 0.191071 0.249382
vn -0.692840 0.502484 -0.517188
v -0.073745 0.245267 0.155057
vn 0.694085 0.499947 -0.517976
v 0.073330 0.245267 0.155056
vn -0.644971 0.662622 0.380717
v -0.070157 0.238774 0.214058
vn 0.000112 0.973780 -0.227493
v 0.000811 0.264099 0.167839
vn 0.000112 0.293882 0.955842
v 0.000811 0.211598 0.259214
vn 0.645656 0.662120 0.380429
v 0.069781 0.238774 0.214058
vn 0.533558 0.271130 0.801127
v 0.069781 0.211523 0.258656
vn 0.533558 0.828660 -0.169231
v 0.069781 0.263579 0.168054
vn -0.532882 0.829116 -0.169128
v -0.070157 0.263579 0.168054
vn -0.532882 0.271448 0.801469
v -0.070157 0.211523 0.258656
# 71 vertices, 0 vertices normals


usemtl material_0
f 1//1 45//45 46//46
f 1//1 46//46 2//2
f 2//2 13//13 12//12
f 2//2 12//12 1//1
f 2//2 46//46 47//47
f 2//2 47//47 3//3
f 3//3 14//14 13//13
f 3//3 13//13 2//2
f 3//3 47//47 48//48
f 3//3 48//48 4//4
f 4//4 15//15 14//14
f 4//4 14//14 3//3
f 4//4 48//48 49//49
f 4//4 49//49 5//5
f 5//5 16//16 15//15
f 5//5 15//15 4//4
f 5//5 49//49 50//50
f 5//5 50//50 6//6
f 6//6 17//17 16//16
f 6//6 16//16 5//5
f 6//6 50//50 51//51
f 6//6 51//51 7//7
f 7//7 18//18 17//17
f 7//7 17//17 6//6
f 7//7 51//51 52//52
f 7//7 52//52 8//8
f 8//8 19//19 18//18
f 8//8 18//18 7//7
f 8//8 52//52 53//53
f 8//8 53//53 9//9
f 9//9 20//20 19//19
f 9//9 19//19 8//8
f 9//9 53//53 54//54
f 9//9 54//54 10//10
f 10//10 21//21 20//20
f 10//10 20//20 9//9
f 10//10 54//54 55//55
f 10//10 55//55 11//11
f 11//11 22//22 21//21
f 11//11 21//21 10//10
f 11//11 55//55 44//44
f 11//11 44//44 33//33
f 11//11 33//33 22//22
f 12//12 23//23 34//34
f 12//12 34//34 45//45
f 12//12 45//45 1//1
f 13//13 24//24 23//23
f 13//13 23//23 12//12
f 14//14 25//25 24//24
f 14//14 24//24 13//13
f 15//15 26//26 25//25
f 15//15 25//25 14//14
f 16//16 27//27 26//26
f 16//16 26//26 15//15
f 17//17 28//28 27//27
f 17//17 27//27 16//16
f 17//17 62//62 57//57
f 17//17 57//57 28//28
f 18//18 56//56 62//62
f 18//18 62//62 17//17
f 19//19 60//60 56//56
f 19//19 56//56 18//18
f 20//20 31//31 30//30
f 20//20 30//30 19//19
f 21//21 32//32 31//31
f 21//21 31//31 20//20
f 22//22 33//33 32//32
f 22//22 32//32 21//21
f 24//24 35//35 34//34
f 24//24 34//34 23//23
f 25//25 36//36 35//35
f 25//25 35//35 24//24
f 26//26 37//37 36//36
f 26//26 36//36 25//25
f 27//27 38//38 37//37
f 27//27 37//37 26//26
f 28//28 39//39 38//38
f 28//28 38//38 27//27
f 29//29 64//64 71//71
f 29//29 71//71 66//66
f 29//29 65//65 70//70
f 29//29 70//70 64//64
f 30//30 58//58 60//60
f 30//30 60//60 19//19
f 31//31 42//42 41//41
f 31//31 41//41 30//30
f 32//32 43//43 42//42
f 32//32 42//42 31//31
f 33//33 44//44 43//43
f 33//33 43//43 32//32
f 35//35 46//46 45//45
f 35//35 45//45 34//34
f 36//36 47//47 46//46
f 36//36 46//46 35//35
f 37//37 48//48 47//47
f 37//37 47//47 36//36
f 38//38 49//49 48//48
f 38//38 48//48 37//37
f 39//39 50//50 49//49
f 39//39 49//49 38//38
f 39//39 63//63 59//59
f 39//39 59//59 40//40
f 40//40 51//51 50//50
f 40//40 50//50 39//39
f 40//40 59//59 61//61
f 40//40 61//61 41//41
f 41//41 52//52 51//51
f 41//41 51//51 40//40
f 41//41 61//61 58//58
f 41//41 58//58 30//30
f 42//42 53//53 52//52
f 42//42 52//52 41//41
f 43//43 54//54 53//53
f 43//43 53//53 42//42
f 44//44 55//55 54//54
f 44//44 54//54 43//43
f 56//56 60//60 71//71
f 56//56 71//71 64//64
f 57//57 62//62 70//70
f 57//57 70//70 65//65
f 57//57 63//63 39//39
f 57//57 39//39 28//28
f 58//58 66//66 71//71
f 58//58 71//71 60//60
f 59//59 67//67 68//68
f 59//59 68//68 61//61
f 61//61 68//68 66//66
f 61//61 66//66 58//58
f 63//63 69//69 67//67
f 63//63 67//67 59//59
f 64//64 70//70 62//62
f 64//64 62//62 56//56
f 65//65 69//69 63//63
f 65//65 63//63 57//57
f 66//66 68//68 67//67
f 66//66 67//67 29//29
f 67//67 69//69 65//65
f 67//67 65//65 29//29
# 138 faces, 0 coords texture

# End of File
