####
#
# OBJ File Generated by Meshlab
#
####
# Object microfeet.obj
#
# Vertices: 100
# Faces: 144
#
####
vn -2.627993 1.517269 -2.617988
v 0.280327 0.162303 0.000000
vn -2.627993 1.517269 0.000000
v 0.280327 0.162303 0.012973
vn -1.517269 2.627996 0.000000
v 0.287648 0.169624 0.012973
vn -1.517269 2.627996 -2.617995
v 0.287648 0.169624 0.000000
vn -0.000001 3.034546 0.000000
v 0.297648 0.172303 0.012973
vn -0.000001 3.034546 -2.617996
v 0.297648 0.172303 0.000000
vn 1.517275 2.627989 0.000000
v 0.307648 0.169624 0.012973
vn 1.517275 2.627990 -2.617988
v 0.307648 0.169624 0.000000
vn 2.627996 1.517275 0.000000
v 0.314968 0.162303 0.012973
vn 2.627996 1.517275 -2.618002
v 0.314968 0.162303 0.000000
vn 3.034543 0.000002 0.000000
v 0.317648 0.152303 0.012973
vn 3.034543 0.000002 -2.617986
v 0.317648 0.152303 0.000000
vn 2.627997 -1.517273 0.000000
v 0.314968 0.142303 0.012973
vn 2.627997 -1.517273 -2.618001
v 0.314968 0.142303 0.000000
vn 1.517275 -2.627990 0.000000
v 0.307648 0.134983 0.012973
vn 1.517275 -2.627989 -2.617988
v 0.307648 0.134983 0.000000
vn -0.000001 -3.034546 0.000000
v 0.297648 0.132303 0.012973
vn -0.000001 -3.034546 -2.617996
v 0.297648 0.132303 0.000000
vn -1.517269 -2.627996 0.000000
v 0.287648 0.134983 0.012973
vn -1.517269 -2.627996 -2.617995
v 0.287648 0.134983 0.000000
vn -2.627993 -1.517267 0.000000
v 0.280327 0.142303 0.012973
vn -2.627993 -1.517267 -2.617987
v 0.280327 0.142303 0.000000
vn -3.034549 0.000002 0.000000
v 0.277648 0.152303 0.012973
vn -3.034549 0.000002 -2.618003
v 0.277648 0.152303 0.000000
vn 0.000000 0.000000 -6.283185
v 0.297648 0.152303 0.000000
vn -2.627993 1.517268 -2.617986
v 0.280327 -0.101968 0.000000
vn -2.627993 1.517268 0.000000
v 0.280327 -0.101968 0.012973
vn -1.517269 2.627997 0.000000
v 0.287648 -0.094648 0.012973
vn -1.517269 2.627996 -2.617996
v 0.287648 -0.094648 0.000000
vn -0.000001 3.034546 0.000000
v 0.297648 -0.091968 0.012973
vn -0.000001 3.034546 -2.617996
v 0.297648 -0.091968 0.000000
vn 1.517275 2.627990 0.000000
v 0.307648 -0.094648 0.012973
vn 1.517275 2.627990 -2.617989
v 0.307648 -0.094648 0.000000
vn 2.627996 1.517274 0.000000
v 0.314968 -0.101968 0.012973
vn 2.627996 1.517274 -2.618001
v 0.314968 -0.101968 0.000000
vn 3.034543 -0.000000 0.000000
v 0.317648 -0.111968 0.012973
vn 3.034543 -0.000000 -2.617988
v 0.317648 -0.111968 0.000000
vn 2.627997 -1.517273 0.000000
v 0.314968 -0.121968 0.012973
vn 2.627997 -1.517273 -2.618001
v 0.314968 -0.121968 0.000000
vn 1.517275 -2.627990 0.000000
v 0.307648 -0.129289 0.012973
vn 1.517275 -2.627989 -2.617989
v 0.307648 -0.129289 0.000000
vn -0.000001 -3.034546 0.000000
v 0.297648 -0.131968 0.012973
vn -0.000001 -3.034546 -2.617996
v 0.297648 -0.131968 0.000000
vn -1.517269 -2.627996 0.000000
v 0.287648 -0.129289 0.012973
vn -1.517269 -2.627996 -2.617995
v 0.287648 -0.129289 0.000000
vn -2.627993 -1.517267 0.000000
v 0.280327 -0.121968 0.012973
vn -2.627993 -1.517267 -2.617987
v 0.280327 -0.121968 0.000000
vn -3.034549 -0.000000 0.000000
v 0.277648 -0.111968 0.012973
vn -3.034549 -0.000000 -2.618004
v 0.277648 -0.111968 0.000000
vn 0.000000 0.000000 -6.283186
v 0.297648 -0.111968 0.000000
vn 2.627993 1.517274 -2.617994
v -0.277210 -0.101968 0.000000
vn 1.517271 2.627994 -2.617994
v -0.284530 -0.094648 0.000000
vn 1.517271 2.627994 0.000000
v -0.284530 -0.094648 0.012973
vn 2.627993 1.517274 0.000000
v -0.277210 -0.101968 0.012973
vn 0.000000 3.034546 -2.617995
v -0.294530 -0.091968 0.000000
vn -0.000000 3.034546 0.000000
v -0.294530 -0.091968 0.012973
vn -1.517273 2.627992 -2.617992
v -0.304530 -0.094648 0.000000
vn -1.517273 2.627992 0.000000
v -0.304530 -0.094648 0.012973
vn -2.627994 1.517276 -2.617999
v -0.311851 -0.101968 0.000000
vn -2.627994 1.517276 0.000000
v -0.311851 -0.101968 0.012973
vn -3.034543 -0.000000 -2.617988
v -0.314530 -0.111968 0.000000
vn -3.034543 -0.000000 0.000000
v -0.314530 -0.111968 0.012973
vn -2.627994 -1.517275 -2.617999
v -0.311851 -0.121968 0.000000
vn -2.627995 -1.517275 0.000000
v -0.311851 -0.121968 0.012973
vn -1.517274 -2.627991 -2.617991
v -0.304530 -0.129289 0.000000
vn -1.517274 -2.627992 0.000000
v -0.304530 -0.129289 0.012973
vn -0.000000 -3.034546 -2.617995
v -0.294530 -0.131968 0.000000
vn 0.000000 -3.034546 0.000000
v -0.294530 -0.131968 0.012973
vn 1.517272 -2.627994 -2.617993
v -0.284530 -0.129289 0.000000
vn 1.517272 -2.627994 0.000000
v -0.284530 -0.129289 0.012973
vn 2.627994 -1.517274 -2.617994
v -0.277210 -0.121968 0.000000
vn 2.627993 -1.517274 0.000000
v -0.277210 -0.121968 0.012973
vn 3.034545 -0.000000 -2.617993
v -0.274530 -0.111968 0.000000
vn 3.034545 -0.000000 0.000000
v -0.274530 -0.111968 0.012973
vn 0.000000 0.000000 -6.283185
v -0.294530 -0.111968 0.000000
vn 2.627993 1.517275 -2.617995
v -0.277210 0.162303 0.000000
vn 1.517272 2.627994 -2.617993
v -0.284530 0.169624 0.000000
vn 1.517272 2.627994 0.000000
v -0.284530 0.169624 0.012973
vn 2.627993 1.517275 0.000000
v -0.277210 0.162303 0.012973
vn 0.000000 3.034546 -2.617995
v -0.294530 0.172303 0.000000
vn -0.000000 3.034546 0.000000
v -0.294530 0.172303 0.012973
vn -1.517274 2.627991 -2.617991
v -0.304530 0.169624 0.000000
vn -1.517274 2.627991 0.000000
v -0.304530 0.169624 0.012973
vn -2.627994 1.517277 -2.618000
v -0.311851 0.162303 0.000000
vn -2.627994 1.517277 0.000000
v -0.311851 0.162303 0.012973
vn -3.034543 0.000002 -2.617986
v -0.314530 0.152303 0.000000
vn -3.034543 0.000002 0.000000
v -0.314530 0.152303 0.012973
vn -2.627995 -1.517275 -2.617999
v -0.311851 0.142303 0.000000
vn -2.627995 -1.517275 0.000000
v -0.311851 0.142303 0.012973
vn -1.517274 -2.627991 -2.617991
v -0.304530 0.134983 0.000000
vn -1.517274 -2.627992 0.000000
v -0.304530 0.134983 0.012973
vn -0.000000 -3.034546 -2.617995
v -0.294530 0.132303 0.000000
vn 0.000000 -3.034546 0.000000
v -0.294530 0.132303 0.012973
vn 1.517272 -2.627994 -2.617993
v -0.284530 0.134983 0.000000
vn 1.517272 -2.627994 0.000000
v -0.284530 0.134983 0.012973
vn 2.627993 -1.517273 -2.617994
v -0.277210 0.142303 0.000000
vn 2.627993 -1.517273 0.000000
v -0.277210 0.142303 0.012973
vn 3.034545 0.000002 -2.617992
v -0.274530 0.152303 0.000000
vn 3.034545 0.000002 0.000000
v -0.274530 0.152303 0.012973
vn 0.000000 0.000000 -6.283185
v -0.294530 0.152303 0.000000
# 100 vertices, 0 vertices normals

f 1//1 2//2 3//3
f 3//3 4//4 1//1
f 4//4 3//3 5//5
f 5//5 6//6 4//4
f 6//6 5//5 7//7
f 7//7 8//8 6//6
f 8//8 7//7 9//9
f 9//9 10//10 8//8
f 10//10 9//9 11//11
f 11//11 12//12 10//10
f 12//12 11//11 13//13
f 13//13 14//14 12//12
f 14//14 13//13 15//15
f 15//15 16//16 14//14
f 16//16 15//15 17//17
f 17//17 18//18 16//16
f 18//18 17//17 19//19
f 19//19 20//20 18//18
f 20//20 19//19 21//21
f 21//21 22//22 20//20
f 22//22 21//21 23//23
f 23//23 24//24 22//22
f 2//2 1//1 24//24
f 24//24 23//23 2//2
f 4//4 25//25 1//1
f 6//6 25//25 4//4
f 8//8 25//25 6//6
f 10//10 25//25 8//8
f 12//12 25//25 10//10
f 14//14 25//25 12//12
f 16//16 25//25 14//14
f 18//18 25//25 16//16
f 20//20 25//25 18//18
f 22//22 25//25 20//20
f 24//24 25//25 22//22
f 1//1 25//25 24//24
f 26//26 27//27 28//28
f 28//28 29//29 26//26
f 29//29 28//28 30//30
f 30//30 31//31 29//29
f 31//31 30//30 32//32
f 32//32 33//33 31//31
f 33//33 32//32 34//34
f 34//34 35//35 33//33
f 35//35 34//34 36//36
f 36//36 37//37 35//35
f 37//37 36//36 38//38
f 38//38 39//39 37//37
f 39//39 38//38 40//40
f 40//40 41//41 39//39
f 41//41 40//40 42//42
f 42//42 43//43 41//41
f 43//43 42//42 44//44
f 44//44 45//45 43//43
f 45//45 44//44 46//46
f 46//46 47//47 45//45
f 47//47 46//46 48//48
f 48//48 49//49 47//47
f 49//49 48//48 27//27
f 27//27 26//26 49//49
f 29//29 50//50 26//26
f 31//31 50//50 29//29
f 33//33 50//50 31//31
f 35//35 50//50 33//33
f 37//37 50//50 35//35
f 39//39 50//50 37//37
f 41//41 50//50 39//39
f 43//43 50//50 41//41
f 45//45 50//50 43//43
f 47//47 50//50 45//45
f 49//49 50//50 47//47
f 26//26 50//50 49//49
f 51//51 52//52 53//53
f 53//53 54//54 51//51
f 52//52 55//55 56//56
f 56//56 53//53 52//52
f 55//55 57//57 58//58
f 58//58 56//56 55//55
f 57//57 59//59 60//60
f 60//60 58//58 57//57
f 59//59 61//61 62//62
f 62//62 60//60 59//59
f 61//61 63//63 64//64
f 64//64 62//62 61//61
f 63//63 65//65 66//66
f 66//66 64//64 63//63
f 65//65 67//67 68//68
f 68//68 66//66 65//65
f 67//67 69//69 70//70
f 70//70 68//68 67//67
f 69//69 71//71 72//72
f 72//72 70//70 69//69
f 71//71 73//73 74//74
f 74//74 72//72 71//71
f 73//73 51//51 54//54
f 54//54 74//74 73//73
f 52//52 51//51 75//75
f 55//55 52//52 75//75
f 57//57 55//55 75//75
f 59//59 57//57 75//75
f 61//61 59//59 75//75
f 63//63 61//61 75//75
f 65//65 63//63 75//75
f 67//67 65//65 75//75
f 69//69 67//67 75//75
f 71//71 69//69 75//75
f 73//73 71//71 75//75
f 51//51 73//73 75//75
f 76//76 77//77 78//78
f 78//78 79//79 76//76
f 77//77 80//80 81//81
f 81//81 78//78 77//77
f 80//80 82//82 83//83
f 83//83 81//81 80//80
f 82//82 84//84 85//85
f 85//85 83//83 82//82
f 84//84 86//86 87//87
f 87//87 85//85 84//84
f 86//86 88//88 89//89
f 89//89 87//87 86//86
f 88//88 90//90 91//91
f 91//91 89//89 88//88
f 90//90 92//92 93//93
f 93//93 91//91 90//90
f 92//92 94//94 95//95
f 95//95 93//93 92//92
f 94//94 96//96 97//97
f 97//97 95//95 94//94
f 96//96 98//98 99//99
f 99//99 97//97 96//96
f 98//98 76//76 79//79
f 79//79 99//99 98//98
f 77//77 76//76 100//100
f 80//80 77//77 100//100
f 82//82 80//80 100//100
f 84//84 82//82 100//100
f 86//86 84//84 100//100
f 88//88 86//86 100//100
f 90//90 88//88 100//100
f 92//92 90//90 100//100
f 94//94 92//92 100//100
f 96//96 94//94 100//100
f 98//98 96//96 100//100
f 76//76 98//98 100//100
# 144 faces, 0 coords texture

# End of File
