####
#
# OBJ File Generated by Meshlab
#
####
# Object micro.obj
#
# Vertices: 148
# Faces: 288
#
####
vn -0.001159 -0.873318 6.159357
v 0.179598 -0.172867 0.373823
vn -0.000714 -3.904639 3.847383
v 0.177827 -0.174943 0.373221
vn 0.405934 -3.786698 3.589756
v 0.339592 -0.175003 0.373287
vn 1.345772 -1.430634 5.435261
v 0.341915 -0.172894 0.373823
vn -0.001187 -6.170835 0.832570
v 0.174136 -0.175562 0.370960
vn 0.004836 -6.197240 0.729721
v 0.334753 -0.175562 0.370935
vn -5.701845 -1.109967 1.109975
v -0.344584 -0.172781 0.371041
vn -3.816338 -0.936411 3.816308
v -0.343769 -0.172781 0.373008
vn -2.052365 2.356184 2.052324
v -0.343769 0.220845 0.373008
vn -3.022031 2.748907 0.601097
v -0.344584 0.220845 0.371041
vn -1.110845 -1.109525 5.701969
v -0.341802 -0.172781 0.373823
vn -0.601126 2.748903 3.022027
v -0.341802 0.220845 0.373823
vn -1.109869 -5.701817 1.110012
v -0.341802 -0.175562 0.371041
vn -3.816262 -3.816256 0.936491
v -0.343769 -0.174748 0.371041
vn -3.816258 -3.816257 -0.936486
v -0.343769 -0.174748 0.012221
vn -1.110744 -5.702055 -1.109457
v -0.341802 -0.175562 0.012221
vn -5.701854 -1.109965 -1.109940
v -0.344584 -0.172781 0.012221
vn 1.069896 -5.771985 1.060342
v 0.341702 -0.175562 0.369994
vn 0.290539 -6.170662 0.762211
v 0.339667 -0.175562 0.370659
vn -0.000000 -6.283187 0.000000
v 0.334565 -0.175562 0.367947
vn 5.629976 -1.253826 1.095456
v 0.344584 -0.172836 0.371096
vn 3.528817 -4.012538 1.004441
v 0.343687 -0.174775 0.370876
vn 3.507415 -4.004353 -1.033084
v 0.343703 -0.174791 0.012328
vn 5.612641 -1.259493 -1.120640
v 0.344584 -0.172891 0.012111
vn 1.052137 -5.757174 -1.095148
v 0.341754 -0.175562 0.013199
vn 3.607573 -1.347692 3.617248
v 0.343802 -0.172865 0.373024
vn 2.052436 2.356491 2.052356
v 0.343769 0.220845 0.373008
vn 0.601022 2.749063 3.022063
v 0.341802 0.220845 0.373823
vn 3.022073 2.749068 0.600991
v 0.344584 0.220845 0.371041
vn -3.022043 2.748918 -0.601085
v -0.344584 0.220845 0.012221
vn -2.052324 2.356144 -2.052331
v -0.343769 0.220845 0.010254
vn -3.816295 -0.936348 -3.816316
v -0.343769 -0.172781 0.010254
vn -0.601080 2.748919 -3.022038
v -0.341802 0.220845 0.009439
vn -1.110062 -1.109894 -5.701891
v -0.341802 -0.172781 0.009439
vn -0.000152 -6.171567 -0.829983
v 0.174136 -0.175562 0.012302
vn -0.002363 -3.902457 -3.850343
v 0.177827 -0.174943 0.010041
vn 0.392170 -3.786190 -3.600935
v 0.339592 -0.175004 0.009975
vn 0.005665 -6.197995 -0.726544
v 0.334753 -0.175562 0.012327
vn -0.000543 -0.874540 -6.159008
v 0.179598 -0.172867 0.009439
vn 1.315070 -1.407434 -5.470047
v 0.341915 -0.172894 0.009439
vn 3.576274 -1.342897 -3.653810
v 0.343802 -0.172892 0.010222
vn 2.052376 2.356469 -2.052358
v 0.343769 0.220845 0.010254
vn 3.022086 2.749098 -0.600965
v 0.344584 0.220845 0.012221
vn 0.600982 2.749089 -3.022082
v 0.341802 0.220845 0.009439
vn 0.278082 -6.170637 -0.768220
v 0.339704 -0.175562 0.012583
vn 0.000000 -6.283187 0.000000
v 0.334565 -0.175562 0.015315
vn 0.000000 3.141593 3.141593
v 0.179512 0.220845 0.373823
vn -0.000000 3.141606 -3.141593
v 0.179512 0.220845 0.009439
vn 0.000000 -6.283189 0.000000
v 0.174185 -0.175562 0.014088
vn 0.000000 -6.283170 0.000000
v -0.335791 -0.175562 0.369174
vn -0.000000 -6.283187 0.000000
v 0.174185 -0.175562 0.369174
vn -0.000000 -6.283182 0.000000
v -0.335791 -0.175562 0.014088
vn 0.000000 6.283185 -0.000000
v -0.341802 0.220845 0.371041
vn -0.937240 -3.816779 3.816000
v -0.341802 -0.174748 0.373008
vn -2.841261 -2.840716 2.840809
v -0.343407 -0.174386 0.372646
vn 1.939806 -4.141264 2.805870
v 0.342550 -0.174826 0.372438
vn -0.937344 -3.816110 -3.816706
v -0.341802 -0.174748 0.010254
vn -2.841103 -2.840558 -2.840813
v -0.343407 -0.174386 0.010616
vn 1.903850 -4.145382 -2.837319
v 0.342561 -0.174834 0.010808
vn 1.202212 -0.000000 -6.044055
v 0.340716 -0.199457 0.009439
vn 0.601107 2.748901 -3.022027
v 0.340716 -0.180800 0.009439
vn 2.052337 2.356186 -2.052346
v 0.343451 -0.180800 0.010572
vn 4.035109 -0.531237 -3.919559
v 0.343451 -0.200676 0.010572
vn 1.272788 -0.167566 -6.005903
v 0.340716 -0.200315 0.009439
vn 3.022025 2.748897 -0.601112
v 0.344584 -0.180800 0.013306
vn 5.849662 -0.770097 -1.163688
v 0.344584 -0.200825 0.013306
vn -1.110026 -5.701777 1.110024
v 0.179103 -0.220845 0.369955
vn -3.816375 -3.816332 0.936324
v 0.176368 -0.219712 0.369955
vn -4.104723 -4.104671 0.000000
v 0.176368 -0.219712 0.064801
vn -1.202265 -6.044035 0.000000
v 0.179103 -0.220845 0.064801
vn -5.701824 -1.109996 1.109968
v 0.175235 -0.216978 0.369955
vn -6.044055 -1.202227 0.000000
v 0.175235 -0.216978 0.064801
vn -1.110011 -1.110039 5.701777
v 0.179103 -0.216978 0.373823
vn -0.936329 -3.816377 3.816357
v 0.179103 -0.219712 0.372690
vn 0.531216 -4.035167 3.919594
v 0.324414 -0.219712 0.372690
vn 0.167566 -1.272856 6.005873
v 0.324054 -0.216978 0.373823
vn 0.770105 -5.849636 1.163741
v 0.324563 -0.220845 0.369955
vn -3.816353 -0.936354 3.816293
v 0.176368 -0.216978 0.372690
vn -2.052359 2.356187 2.052322
v 0.176368 -0.180800 0.372690
vn -3.022031 2.748907 0.601099
v 0.175235 -0.180800 0.369955
vn -0.601126 2.748888 3.022020
v 0.179103 -0.180800 0.373823
vn -1.109963 -1.109992 -5.701831
v 0.179103 -0.216978 0.009439
vn -3.816291 -0.936359 -3.816335
v 0.176368 -0.216978 0.010572
vn -2.052324 2.356176 -2.052347
v 0.176368 -0.180800 0.010572
vn -0.601096 2.748914 -3.022032
v 0.179103 -0.180800 0.009439
vn -5.701811 -1.109993 -1.109993
v 0.175235 -0.216978 0.013306
vn -3.022024 2.748897 -0.601112
v 0.175235 -0.180800 0.013306
vn -1.110021 -5.701764 -1.110050
v 0.179103 -0.220845 0.013306
vn -0.936334 -3.816314 -3.816399
v 0.179103 -0.219712 0.010572
vn 0.531193 -4.035103 -3.919654
v 0.324414 -0.219712 0.010572
vn 0.770093 -5.849627 -1.163758
v 0.324563 -0.220845 0.013306
vn 0.167558 -1.272794 -6.005903
v 0.324054 -0.216978 0.009439
vn 3.022031 2.748907 0.601099
v 0.344584 -0.180800 0.369955
vn 2.052371 2.356194 2.052317
v 0.343451 -0.180800 0.372690
vn 4.035179 -0.531256 3.919497
v 0.343451 -0.200676 0.372690
vn 5.849671 -0.770107 1.163667
v 0.344584 -0.200824 0.369955
vn 0.601137 2.748885 3.022015
v 0.340716 -0.180800 0.373823
vn 1.272850 -0.167569 6.005876
v 0.340716 -0.200315 0.373823
vn 6.176143 -0.813086 0.000000
v 0.344584 -0.200825 0.064801
vn 3.141593 3.141592 -0.000000
v 0.344584 -0.180800 0.064801
vn 1.570796 -1.570796 -1.570799
v 0.186652 -0.218217 0.314143
vn 1.570797 -1.570796 1.570797
v 0.186652 -0.218217 0.069119
vn -1.570796 -1.570796 1.570799
v 0.317013 -0.218217 0.069119
vn -1.570797 -1.570796 -1.570796
v 0.317013 -0.218217 0.314143
vn -3.141593 3.141603 -0.000000
v 0.175235 -0.180800 0.064801
vn 4.897989 -2.827839 1.124061
v 0.341901 -0.210835 0.369955
vn 5.255994 -3.034525 0.000000
v 0.341901 -0.210835 0.064801
vn 2.827860 -4.898005 1.124008
v 0.334573 -0.218163 0.369955
vn 3.034532 -5.255990 0.000000
v 0.334573 -0.218163 0.064801
vn 0.813088 -6.176143 0.000000
v 0.324563 -0.220845 0.064801
vn 3.436227 -1.983865 -3.734581
v 0.340886 -0.210248 0.010572
vn 1.161077 -0.670350 -5.968839
v 0.338434 -0.208833 0.009439
vn 4.897961 -2.827848 -1.124090
v 0.341901 -0.210835 0.013306
vn 3.436284 -1.983881 3.734526
v 0.340886 -0.210248 0.372690
vn 1.161127 -0.670401 5.968806
v 0.338434 -0.208833 0.373823
vn 1.983875 -3.436256 3.734433
v 0.333987 -0.217147 0.372690
vn 0.670353 -1.161107 5.968825
v 0.332571 -0.214696 0.373823
vn 1.983866 -3.436201 -3.734482
v 0.333987 -0.217147 0.010572
vn 0.670306 -1.161052 -5.968862
v 0.332571 -0.214696 0.009439
vn 2.827868 -4.897985 -1.124032
v 0.334573 -0.218163 0.013306
vn -2.840166 -2.840419 2.840254
v 0.176871 -0.219210 0.372187
vn -3.816358 -3.816319 -0.936354
v 0.176368 -0.219712 0.013306
vn -2.840267 -2.840520 -2.840290
v 0.176871 -0.219210 0.011075
vn -1.570796 -1.570796 -1.570796
v 0.317013 -0.216117 0.061482
vn 1.570796 -1.570796 -1.570796
v 0.186652 -0.216117 0.061482
vn 1.570796 -1.570796 1.570796
v 0.186652 -0.216117 0.023172
vn -1.570796 -1.570796 1.570796
v 0.317013 -0.216117 0.023172
vn 1.570796 -4.712389 -1.570796
v 0.186652 -0.220845 0.061482
vn -1.570796 -4.712389 -1.570796
v 0.317013 -0.220845 0.061482
vn 1.570796 -4.712389 1.570796
v 0.186652 -0.220845 0.023172
vn -1.570796 -4.712389 1.570796
v 0.317013 -0.220845 0.023172
vn 1.570796 -4.712388 1.570799
v 0.186652 -0.220845 0.069119
vn 1.570798 -4.712389 -1.570796
v 0.186652 -0.220845 0.314143
vn -1.570796 -4.712390 1.570796
v 0.317013 -0.220845 0.069119
vn -1.570797 -4.712389 -1.570799
v 0.317013 -0.220845 0.314143
vn 0.000000 6.283198 -0.000000
v -0.341802 0.220845 0.012221
vn 0.000000 6.283185 -0.000000
v 0.341802 0.220845 0.012221
vn 0.000000 6.283185 -0.000000
v 0.341802 0.220845 0.371041
vn 0.000000 6.283186 -0.000000
v 0.179512 0.220845 0.012221
vn 0.000000 6.283198 -0.000000
v 0.179512 0.220845 0.371041
vn 1.570796 -4.712389 -1.570796
v -0.288766 -0.175562 0.336431
vn 1.570796 -4.712389 1.570796
v -0.288766 -0.175562 0.046830
vn -1.570796 -4.712389 1.570796
v 0.127160 -0.175562 0.046830
vn -1.570796 -4.712389 -1.570796
v 0.127160 -0.175562 0.336431
vn -1.570796 -1.570796 1.570796
v 0.127160 0.161474 0.046830
vn 1.570796 -1.570796 1.570796
v -0.288766 0.161474 0.046830
vn -1.570796 -1.570796 -1.570796
v 0.127160 0.161474 0.336431
vn 1.570796 -1.570796 -1.570796
v -0.288766 0.161474 0.336431
# 148 vertices, 0 vertices normals

f 1//1 2//2 3//3
f 3//3 4//4 1//1
f 2//2 5//5 6//6
f 6//6 3//3 2//2
f 7//7 8//8 9//9
f 9//9 10//10 7//7
f 8//8 11//11 12//12
f 12//12 9//9 8//8
f 13//13 14//14 15//15
f 15//15 16//16 13//13
f 14//14 7//7 17//17
f 17//17 15//15 14//14
f 18//18 19//19 20//20
f 19//19 6//6 20//20
f 21//21 22//22 23//23
f 23//23 24//24 21//21
f 22//22 18//18 25//25
f 25//25 23//23 22//22
f 4//4 26//26 27//27
f 4//4 27//27 28//28
f 26//26 21//21 29//29
f 29//29 27//27 26//26
f 30//30 31//31 32//32
f 32//32 17//17 30//30
f 31//31 33//33 34//34
f 34//34 32//32 31//31
f 35//35 36//36 37//37
f 37//37 38//38 35//35
f 36//36 39//39 40//40
f 40//40 37//37 36//36
f 24//24 41//41 42//42
f 42//42 43//43 24//24
f 41//41 40//40 44//44
f 44//44 42//42 41//41
f 38//38 45//45 46//46
f 45//45 25//25 46//46
f 1//1 47//47 12//12
f 12//12 11//11 1//1
f 39//39 48//48 44//44
f 44//44 40//40 39//39
f 21//21 24//24 43//43
f 43//43 29//29 21//21
f 7//7 10//10 30//30
f 30//30 17//17 7//7
f 35//35 38//38 46//46
f 46//46 49//49 35//35
f 25//25 18//18 20//20
f 20//20 46//46 25//25
f 5//5 13//13 50//50
f 50//50 51//51 5//5
f 52//52 50//50 13//13
f 13//13 16//16 52//52
f 53//53 10//10 9//9
f 9//9 12//12 53//53
f 14//14 13//13 54//54
f 54//54 55//55 14//14
f 54//54 11//11 8//8
f 8//8 55//55 54//54
f 8//8 7//7 14//14
f 14//14 55//55 8//8
f 3//3 6//6 19//19
f 19//19 56//56 3//3
f 19//19 18//18 22//22
f 22//22 56//56 19//19
f 22//22 21//21 26//26
f 26//26 56//56 22//22
f 26//26 4//4 3//3
f 3//3 56//56 26//26
f 57//57 16//16 15//15
f 15//15 58//58 57//57
f 15//15 17//17 32//32
f 32//32 58//58 15//15
f 32//32 34//34 57//57
f 57//57 58//58 32//32
f 37//37 40//40 41//41
f 41//41 59//59 37//37
f 41//41 24//24 23//23
f 23//23 59//59 41//41
f 23//23 25//25 45//45
f 45//45 59//59 23//23
f 45//45 38//38 37//37
f 37//37 59//59 45//45
f 60//60 61//61 62//62
f 62//62 63//63 64//64
f 62//62 64//64 60//60
f 62//62 65//65 66//66
f 66//66 63//63 62//62
f 67//67 68//68 69//69
f 69//69 70//70 67//67
f 68//68 71//71 72//72
f 72//72 69//69 68//68
f 73//73 74//74 75//75
f 75//75 76//76 73//73
f 74//74 67//67 77//77
f 77//77 75//75 74//74
f 71//71 78//78 79//79
f 79//79 80//80 71//71
f 78//78 73//73 81//81
f 81//81 79//79 78//78
f 82//82 83//83 84//84
f 84//84 85//85 82//82
f 83//83 86//86 87//87
f 87//87 84//84 83//83
f 88//88 89//89 90//90
f 90//90 91//91 88//88
f 89//89 82//82 92//92
f 92//92 90//90 89//89
f 93//93 94//94 95//95
f 95//95 96//96 93//93
f 94//94 97//97 98//98
f 98//98 95//95 94//94
f 96//96 99//99 100//100
f 100//100 93//93 96//96
f 101//101 102//102 103//103
f 103//103 104//104 101//101
f 72//72 71//71 80//80
f 80//80 105//105 72//72
f 96//96 106//106 107//107
f 107//107 99//99 96//96
f 106//106 108//108 109//109
f 109//109 107//107 106//106
f 108//108 77//77 110//110
f 110//110 109//109 108//108
f 76//76 98//98 97//97
f 97//97 81//81 73//73
f 97//97 73//73 76//76
f 60//60 92//92 82//82
f 82//82 85//85 61//61
f 82//82 61//61 60//60
f 97//97 94//94 93//93
f 93//93 100//100 105//105
f 105//105 80//80 79//79
f 79//79 81//81 97//97
f 97//97 93//93 105//105
f 105//105 79//79 97//97
f 64//64 63//63 111//111
f 111//111 112//112 64//64
f 63//63 66//66 113//113
f 113//113 111//111 63//63
f 96//96 95//95 114//114
f 114//114 106//106 96//96
f 95//95 98//98 115//115
f 115//115 114//114 95//95
f 106//106 114//114 116//116
f 116//116 108//108 106//106
f 114//114 115//115 117//117
f 117//117 116//116 114//114
f 112//112 111//111 118//118
f 118//118 119//119 112//112
f 111//111 113//113 120//120
f 120//120 118//118 111//111
f 76//76 75//75 116//116
f 116//116 117//117 76//76
f 75//75 77//77 108//108
f 108//108 116//116 75//75
f 91//91 90//90 118//118
f 118//118 120//120 91//91
f 90//90 92//92 119//119
f 119//119 118//118 90//90
f 78//78 71//71 68//68
f 68//68 121//121 78//78
f 68//68 67//67 74//74
f 74//74 121//121 68//68
f 74//74 73//73 78//78
f 78//78 121//121 74//74
f 89//89 88//88 122//122
f 122//122 123//123 89//89
f 122//122 86//86 83//83
f 83//83 123//123 122//122
f 83//83 82//82 89//89
f 89//89 123//123 83//83
f 98//98 76//76 117//117
f 117//117 115//115 98//98
f 119//119 92//92 60//60
f 60//60 64//64 112//112
f 60//60 112//112 119//119
f 70//70 69//69 122//122
f 122//122 88//88 70//70
f 124//124 125//125 126//126
f 126//126 127//127 124//124
f 109//109 110//110 91//91
f 91//91 120//120 109//109
f 107//107 109//109 120//120
f 120//120 113//113 107//107
f 99//99 107//107 113//113
f 113//113 66//66 99//99
f 100//100 99//99 66//66
f 66//66 65//65 100//100
f 87//87 105//105 100//100
f 100//100 65//65 62//62
f 62//62 61//61 85//85
f 85//85 84//84 87//87
f 87//87 100//100 62//62
f 62//62 85//85 87//87
f 86//86 72//72 105//105
f 105//105 87//87 86//86
f 69//69 72//72 86//86
f 86//86 122//122 69//69
f 110//110 70//70 128//128
f 128//128 129//129 110//110
f 70//70 88//88 130//130
f 130//130 128//128 70//70
f 88//88 91//91 131//131
f 131//131 130//130 88//88
f 91//91 110//110 129//129
f 129//129 131//131 91//91
f 129//129 128//128 125//125
f 125//125 124//124 129//129
f 128//128 130//130 126//126
f 126//126 125//125 128//128
f 130//130 131//131 127//127
f 127//127 126//126 130//130
f 131//131 129//129 124//124
f 124//124 127//127 131//131
f 67//67 70//70 132//132
f 132//132 133//133 67//67
f 70//70 110//110 134//134
f 134//134 132//132 70//70
f 110//110 77//77 135//135
f 135//135 134//134 110//110
f 77//77 67//67 133//133
f 133//133 135//135 77//77
f 133//133 132//132 102//102
f 102//102 101//101 133//133
f 132//132 134//134 103//103
f 103//103 102//102 132//132
f 134//134 135//135 104//104
f 104//104 103//103 134//134
f 135//135 133//133 101//101
f 101//101 104//104 135//135
f 136//136 30//30 10//10
f 10//10 53//53 136//136
f 33//33 31//31 30//30
f 30//30 136//136 33//33
f 43//43 137//137 138//138
f 43//43 138//138 29//29
f 42//42 44//44 137//137
f 137//137 43//43 42//42
f 29//29 138//138 28//28
f 28//28 27//27 29//29
f 139//139 136//136 53//53
f 53//53 140//140 139//139
f 48//48 33//33 136//136
f 136//136 139//139 48//48
f 140//140 53//53 12//12
f 12//12 47//47 140//140
f 138//138 140//140 47//47
f 47//47 28//28 138//138
f 44//44 48//48 139//139
f 139//139 137//137 44//44
f 137//137 139//139 140//140
f 140//140 138//138 137//137
f 6//6 5//5 51//51
f 51//51 20//20 6//6
f 49//49 52//52 16//16
f 16//16 35//35 49//49
f 34//34 33//33 48//48
f 48//48 39//39 34//34
f 4//4 28//28 47//47
f 47//47 1//1 4//4
f 57//57 34//34 39//39
f 39//39 36//36 57//57
f 16//16 57//57 36//36
f 36//36 35//35 16//16
f 54//54 13//13 5//5
f 5//5 2//2 54//54
f 11//11 54//54 2//2
f 2//2 1//1 11//11
f 20//20 51//51 49//49
f 49//49 46//46 20//20
f 141//141 50//50 52//52
f 52//52 142//142 141//141
f 143//143 49//49 51//51
f 51//51 144//144 143//143
f 142//142 52//52 49//49
f 49//49 143//143 142//142
f 144//144 51//51 50//50
f 50//50 141//141 144//144
f 142//142 143//143 145//145
f 145//145 146//146 142//142
f 143//143 144//144 147//147
f 147//147 145//145 143//143
f 144//144 141//141 148//148
f 148//148 147//147 144//144
f 148//148 146//146 145//145
f 145//145 147//147 148//148
f 141//141 142//142 146//146
f 146//146 148//148 141//141
# 288 faces, 0 coords texture

# End of File
