####
#
# OBJ File Generated by Meshlab
#
####
# Object microwindow.obj
#
# Vertices: 8
# Faces: 12
#
####
vn 1.570796 1.570796 1.570796
v -0.259928 -0.213814 0.069119
vn 1.570796 1.570796 -1.570797
v -0.259928 -0.213814 0.314143
vn -1.570796 1.570796 -1.570796
v 0.087636 -0.213814 0.314143
vn -1.570797 1.570796 1.570796
v 0.087636 -0.213814 0.069119
vn 1.570796 -1.570796 1.570796
v -0.259928 -0.188336 0.069119
vn -1.570796 -1.570796 1.570796
v 0.087636 -0.188336 0.069119
vn -1.570797 -1.570796 -1.570796
v 0.087636 -0.188336 0.314143
vn 1.570796 -1.570796 -1.570796
v -0.259928 -0.188336 0.314143
# 8 vertices, 0 vertices normals

f 1//1 2//2 3//3
f 3//3 4//4 1//1
f 5//5 6//6 7//7
f 7//7 8//8 5//5
f 2//2 1//1 5//5
f 5//5 8//8 2//2
f 1//1 4//4 6//6
f 6//6 5//5 1//1
f 4//4 3//3 7//7
f 7//7 6//6 4//4
f 3//3 2//2 8//8
f 8//8 7//7 3//3
# 12 faces, 0 coords texture

# End of File
