####
#
# OBJ File Generated by Meshlab
#
####
# Object microbutton.obj
#
# Vertices: 324
# Faces: 108
#
####
vn -0.549626 0.000000 1.326314
v 0.188655 -0.217309 0.060530
vn -0.601350 0.000000 1.451130
v 0.187866 -0.217309 0.060203
vn -0.051724 0.000000 0.124817
v 0.187866 -0.223590 0.060203
vn -0.549626 0.000000 1.326314
v 0.187866 -0.223590 0.060203
vn -0.601350 0.000000 1.451130
v 0.188655 -0.223590 0.060530
vn -0.051724 0.000000 0.124817
v 0.188655 -0.217309 0.060530
vn -1.326414 0.000000 0.549405
v 0.187866 -0.217309 0.060203
vn -1.451232 0.000000 0.601105
v 0.187539 -0.217309 0.059415
vn -0.124818 0.000000 0.051700
v 0.187539 -0.223590 0.059415
vn -1.326414 0.000000 0.549405
v 0.187539 -0.223590 0.059415
vn -1.451232 0.000000 0.601105
v 0.187866 -0.223590 0.060203
vn -0.124818 0.000000 0.051700
v 0.187866 -0.217309 0.060203
vn 0.000000 1.444941 0.598636
v 0.188655 -0.216194 0.059415
vn 0.000000 1.451183 0.601222
v 0.188655 -0.216521 0.060203
vn 0.000000 0.006234 0.002583
v 0.315011 -0.216521 0.060203
vn 0.000000 1.444941 0.598636
v 0.315011 -0.216521 0.060203
vn 0.000000 1.451183 0.601222
v 0.315011 -0.216194 0.059415
vn 0.000000 0.006234 0.002583
v 0.188655 -0.216194 0.059415
vn 0.000000 0.598783 1.444880
v 0.188655 -0.216521 0.060203
vn 0.000000 0.601369 1.451122
v 0.188655 -0.217309 0.060530
vn 0.000000 0.002584 0.006234
v 0.315011 -0.217309 0.060530
vn 0.000000 0.598783 1.444880
v 0.315011 -0.217309 0.060530
vn 0.000000 0.601369 1.451122
v 0.315011 -0.216521 0.060203
vn 0.000000 0.002584 0.006234
v 0.188655 -0.216521 0.060203
vn -1.428576 0.591749 0.000000
v 0.187539 -0.217309 0.059415
vn -1.451222 0.601130 0.000000
v 0.187866 -0.216521 0.059415
vn -0.022646 0.009381 0.000000
v 0.187866 -0.216521 0.024594
vn -1.428576 0.591749 0.000000
v 0.187866 -0.216521 0.024594
vn -1.451222 0.601130 0.000000
v 0.187539 -0.217309 0.024594
vn -0.022646 0.009381 0.000000
v 0.187539 -0.217309 0.059415
vn -0.591845 1.428535 0.000000
v 0.187866 -0.216521 0.059415
vn -0.601227 1.451181 0.000000
v 0.188655 -0.216194 0.059415
vn -0.009382 0.022646 0.000000
v 0.188655 -0.216194 0.024594
vn -0.591845 1.428535 0.000000
v 0.188655 -0.216194 0.024594
vn -0.601227 1.451181 0.000000
v 0.187866 -0.216521 0.024594
vn -0.009382 0.022646 0.000000
v 0.187866 -0.216521 0.059415
vn 1.326467 -0.000019 0.549277
v 0.316126 -0.217309 0.059415
vn 1.451295 -0.000021 0.600967
v 0.315800 -0.217309 0.060203
vn 0.124818 -0.000002 0.051686
v 0.315799 -0.223590 0.060203
vn 1.326414 0.000000 0.549405
v 0.315799 -0.223590 0.060203
vn 1.451232 0.000000 0.601105
v 0.316126 -0.223590 0.059415
vn 0.124818 0.000000 0.051700
v 0.316126 -0.217309 0.059415
vn 0.549568 0.000000 1.326324
v 0.315800 -0.217309 0.060203
vn 0.601292 0.000000 1.451154
v 0.315011 -0.217309 0.060530
vn 0.051724 0.000000 0.124831
v 0.315011 -0.223590 0.060530
vn 0.549621 -0.000008 1.326302
v 0.315011 -0.223590 0.060530
vn 0.601355 -0.000009 1.451143
v 0.315799 -0.223590 0.060203
vn 0.051724 -0.000001 0.124816
v 0.315800 -0.217309 0.060203
vn 0.591786 1.428556 0.000000
v 0.315011 -0.216194 0.059415
vn 0.601169 1.451205 0.000000
v 0.315800 -0.216521 0.059415
vn 0.009381 0.022646 0.000000
v 0.315800 -0.216521 0.024594
vn 0.591786 1.428556 0.000000
v 0.315800 -0.216521 0.024594
vn 0.601169 1.451205 0.000000
v 0.315011 -0.216194 0.024594
vn 0.009381 0.022646 0.000000
v 0.315011 -0.216194 0.059415
vn 1.428634 0.591611 0.000000
v 0.315800 -0.216521 0.059415
vn 1.451280 0.600989 0.000000
v 0.316126 -0.217309 0.059415
vn 0.022645 0.009377 0.000000
v 0.316126 -0.217309 0.024594
vn 1.428634 0.591611 0.000000
v 0.316126 -0.217309 0.024594
vn 1.451280 0.600989 0.000000
v 0.315800 -0.216521 0.024594
vn 0.022645 0.009377 0.000000
v 0.315800 -0.216521 0.059415
vn -1.326414 0.000000 -0.549405
v 0.187539 -0.217309 0.024594
vn -1.451232 0.000000 -0.601105
v 0.187866 -0.217309 0.023806
vn -0.124818 0.000000 -0.051700
v 0.187866 -0.223590 0.023806
vn -1.326414 0.000000 -0.549405
v 0.187866 -0.223590 0.023806
vn -1.451232 0.000000 -0.601105
v 0.187539 -0.223590 0.024594
vn -0.124818 0.000000 -0.051700
v 0.187539 -0.217309 0.024594
vn -0.549408 0.000000 -1.326414
v 0.187866 -0.217309 0.023806
vn -0.601107 0.000000 -1.451231
v 0.188655 -0.217309 0.023479
vn -0.051700 0.000000 -0.124817
v 0.188655 -0.223590 0.023479
vn -0.549408 0.000000 -1.326414
v 0.188655 -0.223590 0.023479
vn -0.601107 0.000000 -1.451231
v 0.187866 -0.223590 0.023806
vn -0.051700 0.000000 -0.124817
v 0.187866 -0.217309 0.023806
vn 0.000000 0.598541 -1.444981
v 0.188655 -0.217309 0.023479
vn 0.000000 0.601127 -1.451223
v 0.188655 -0.216521 0.023806
vn 0.000000 0.002582 -0.006235
v 0.315011 -0.216521 0.023806
vn 0.000000 0.598541 -1.444981
v 0.315011 -0.216521 0.023806
vn 0.000000 0.601127 -1.451223
v 0.315011 -0.217309 0.023479
vn 0.000000 0.002582 -0.006235
v 0.188655 -0.217309 0.023479
vn 0.000000 1.444941 -0.598636
v 0.188655 -0.216521 0.023806
vn 0.000000 1.451183 -0.601222
v 0.188655 -0.216194 0.024594
vn 0.000000 0.006234 -0.002583
v 0.315011 -0.216194 0.024594
vn 0.000000 1.444941 -0.598636
v 0.315011 -0.216194 0.024594
vn 0.000000 1.451183 -0.601222
v 0.315011 -0.216521 0.023806
vn 0.000000 0.006234 -0.002583
v 0.188655 -0.216521 0.023806
vn 0.549354 -0.000008 -1.326436
v 0.315011 -0.217309 0.023479
vn 0.601044 -0.000009 -1.451243
v 0.315800 -0.217309 0.023806
vn 0.051700 -0.000001 -0.124831
v 0.315799 -0.223590 0.023806
vn 0.549408 0.000000 -1.326414
v 0.315799 -0.223590 0.023806
vn 0.601107 0.000000 -1.451231
v 0.315011 -0.223590 0.023479
vn 0.051700 0.000000 -0.124817
v 0.315011 -0.217309 0.023479
vn 1.326472 0.000000 -0.549279
v 0.315800 -0.217309 0.023806
vn 1.451290 0.000000 -0.600965
v 0.316126 -0.217309 0.024594
vn 0.124818 0.000000 -0.051686
v 0.316126 -0.223590 0.024594
vn 1.326419 -0.000019 -0.549407
v 0.316126 -0.223590 0.024594
vn 1.451227 -0.000021 -0.601103
v 0.315799 -0.223590 0.023806
vn 0.124818 -0.000002 -0.051700
v 0.315800 -0.217309 0.023806
vn -0.591799 -1.428554 0.000000
v 0.188655 -0.224705 0.059415
vn -0.601180 -1.451201 0.000000
v 0.187866 -0.224378 0.059415
vn -0.009381 -0.022646 0.000000
v 0.187866 -0.224378 0.024594
vn -0.591799 -1.428554 0.000000
v 0.187866 -0.224378 0.024594
vn -0.601180 -1.451201 0.000000
v 0.188655 -0.224705 0.024594
vn -0.009381 -0.022646 0.000000
v 0.188655 -0.224705 0.059415
vn -1.428583 -0.591730 0.000000
v 0.187866 -0.224378 0.059415
vn -1.451230 -0.601110 0.000000
v 0.187539 -0.223590 0.059415
vn -0.022646 -0.009380 0.000000
v 0.187539 -0.223590 0.024594
vn -1.428583 -0.591730 0.000000
v 0.187539 -0.223590 0.024594
vn -1.451230 -0.601110 0.000000
v 0.187866 -0.224378 0.024594
vn -0.022646 -0.009380 0.000000
v 0.187866 -0.224378 0.059415
vn 0.000000 -0.598763 1.444888
v 0.188655 -0.223590 0.060530
vn 0.000000 -0.601350 1.451130
v 0.188655 -0.224378 0.060203
vn 0.000000 -0.002583 0.006234
v 0.315011 -0.224378 0.060203
vn 0.000000 -0.598763 1.444888
v 0.315011 -0.224378 0.060203
vn 0.000000 -0.601350 1.451130
v 0.315011 -0.223590 0.060530
vn 0.000000 -0.002583 0.006234
v 0.188655 -0.223590 0.060530
vn 0.000000 -1.444961 0.598590
v 0.188655 -0.224378 0.060203
vn 0.000000 -1.451203 0.601176
v 0.188655 -0.224705 0.059415
vn 0.000000 -0.006234 0.002583
v 0.315011 -0.224705 0.059415
vn 0.000000 -1.444961 0.598590
v 0.315011 -0.224705 0.059415
vn 0.000000 -1.451203 0.601176
v 0.315011 -0.224378 0.060203
vn 0.000000 -0.006234 0.002583
v 0.188655 -0.224378 0.060203
vn 1.428583 -0.591730 0.000000
v 0.316126 -0.223590 0.059415
vn 1.451230 -0.601110 0.000000
v 0.315799 -0.224378 0.059415
vn 0.022646 -0.009380 0.000000
v 0.315799 -0.224378 0.024594
vn 1.428583 -0.591730 0.000000
v 0.315799 -0.224378 0.024594
vn 1.451230 -0.601110 0.000000
v 0.316126 -0.223590 0.024594
vn 0.022646 -0.009380 0.000000
v 0.316126 -0.223590 0.059415
vn 0.591799 -1.428554 0.000000
v 0.315799 -0.224378 0.059415
vn 0.601180 -1.451201 0.000000
v 0.315011 -0.224705 0.059415
vn 0.009381 -0.022646 0.000000
v 0.315011 -0.224705 0.024594
vn 0.591799 -1.428554 0.000000
v 0.315011 -0.224705 0.024594
vn 0.601180 -1.451201 0.000000
v 0.315799 -0.224378 0.024594
vn 0.009381 -0.022646 0.000000
v 0.315799 -0.224378 0.059415
vn 0.000000 -1.444961 -0.598590
v 0.188655 -0.224705 0.024594
vn 0.000000 -1.451203 -0.601176
v 0.188655 -0.224378 0.023806
vn 0.000000 -0.006234 -0.002583
v 0.315011 -0.224378 0.023806
vn 0.000000 -1.444961 -0.598590
v 0.315011 -0.224378 0.023806
vn 0.000000 -1.451203 -0.601176
v 0.315011 -0.224705 0.024594
vn 0.000000 -0.006234 -0.002583
v 0.188655 -0.224705 0.024594
vn 0.000000 -0.598522 -1.444989
v 0.188655 -0.224378 0.023806
vn 0.000000 -0.601107 -1.451231
v 0.188655 -0.223590 0.023479
vn 0.000000 -0.002582 -0.006235
v 0.315011 -0.223590 0.023479
vn 0.000000 -0.598522 -1.444989
v 0.315011 -0.223590 0.023479
vn 0.000000 -0.601107 -1.451231
v 0.315011 -0.224378 0.023806
vn 0.000000 -0.002582 -0.006235
v 0.188655 -0.224378 0.023806
vn 0.000000 -0.268899 0.000000
v 0.315011 -0.224705 0.059415
vn 0.000000 -1.570796 0.000000
v 0.188655 -0.224705 0.059415
vn 0.000000 -1.301898 0.000000
v 0.188655 -0.224705 0.024594
vn 0.000000 -0.268899 0.000000
v 0.188655 -0.224705 0.024594
vn 0.000000 -1.570796 0.000000
v 0.315011 -0.224705 0.024594
vn 0.000000 -1.301898 0.000000
v 0.315011 -0.224705 0.059415
vn 0.000000 1.301898 0.000000
v 0.315011 -0.216194 0.059415
vn 0.000000 1.570796 0.000000
v 0.315011 -0.216194 0.024594
vn 0.000000 0.268899 0.000000
v 0.188655 -0.216194 0.024594
vn 0.000000 1.301898 0.000000
v 0.188655 -0.216194 0.024594
vn 0.000000 1.570796 0.000000
v 0.188655 -0.216194 0.059415
vn 0.000000 0.268899 0.000000
v 0.315011 -0.216194 0.059415
vn 0.000000 0.000000 0.049664
v 0.315011 -0.217309 0.060530
vn 0.000000 0.000000 1.570796
v 0.188655 -0.217309 0.060530
vn 0.000000 0.000000 1.521132
v 0.188655 -0.223590 0.060530
vn 0.000000 0.000000 0.049664
v 0.188655 -0.223590 0.060530
vn 0.000000 0.000000 1.570796
v 0.315011 -0.223590 0.060530
vn 0.000000 0.000000 1.521132
v 0.315011 -0.217309 0.060530
vn -0.178451 0.000000 0.000000
v 0.187539 -0.217309 0.059415
vn -1.570796 0.000000 0.000000
v 0.187539 -0.217309 0.024594
vn -1.392345 0.000000 0.000000
v 0.187539 -0.223590 0.024594
vn -0.178451 0.000000 0.000000
v 0.187539 -0.223590 0.024594
vn -1.570796 0.000000 0.000000
v 0.187539 -0.223590 0.059415
vn -1.392345 0.000000 0.000000
v 0.187539 -0.217309 0.059415
vn 0.000000 0.000000 -0.049664
v 0.188655 -0.217309 0.023479
vn 0.000000 0.000000 -1.570796
v 0.315011 -0.217309 0.023479
vn 0.000000 0.000000 -1.521132
v 0.315011 -0.223590 0.023479
vn 0.000000 0.000000 -0.049664
v 0.315011 -0.223590 0.023479
vn 0.000000 0.000000 -1.570796
v 0.188655 -0.223590 0.023479
vn 0.000000 0.000000 -1.521132
v 0.188655 -0.217309 0.023479
vn 0.178451 0.000000 0.000000
v 0.316126 -0.217309 0.024594
vn 1.570796 0.000000 0.000000
v 0.316126 -0.217309 0.059415
vn 1.392345 0.000000 0.000000
v 0.316126 -0.223590 0.059415
vn 0.178451 0.000000 0.000000
v 0.316126 -0.223590 0.059415
vn 1.570796 0.000000 0.000000
v 0.316126 -0.223590 0.024594
vn 1.392345 0.000000 0.000000
v 0.316126 -0.217309 0.024594
vn -0.554727 0.161218 0.161211
v 0.187866 -0.217309 0.060203
vn -1.796325 0.522061 0.522036
v 0.188011 -0.216666 0.060058
vn -0.554693 0.161209 0.161201
v 0.187866 -0.216521 0.059415
vn -0.741115 0.306987 0.306973
v 0.187866 -0.216521 0.059415
vn -1.228553 0.508895 0.508871
v 0.187539 -0.217309 0.059415
vn -0.741075 0.306970 0.306956
v 0.187866 -0.217309 0.060203
vn -0.307088 0.307100 0.741041
v 0.187866 -0.217309 0.060203
vn -0.509010 0.509029 1.228302
v 0.188655 -0.217309 0.060530
vn -0.307102 0.307113 0.741073
v 0.188655 -0.216521 0.060203
vn -0.161204 0.161210 0.554695
v 0.188655 -0.216521 0.060203
vn -0.522042 0.522062 1.796324
v 0.188011 -0.216666 0.060058
vn -0.161212 0.161218 0.554722
v 0.187866 -0.217309 0.060203
vn -0.307028 0.741074 0.307026
v 0.188655 -0.216521 0.060203
vn -0.508946 1.228442 0.508941
v 0.188655 -0.216194 0.059415
vn -0.307032 0.741082 0.307029
v 0.187866 -0.216521 0.059415
vn -0.161206 0.554712 0.161205
v 0.187866 -0.216521 0.059415
vn -0.522036 1.796327 0.522031
v 0.188011 -0.216666 0.060058
vn -0.161208 0.554718 0.161207
v 0.188655 -0.216521 0.060203
vn 0.307089 0.307135 0.741126
v 0.315011 -0.216521 0.060203
vn 0.508964 0.509041 1.228332
v 0.315011 -0.217309 0.060530
vn 0.307035 0.307082 0.740997
v 0.315800 -0.217309 0.060203
vn 0.161195 0.161220 0.554648
v 0.315800 -0.217309 0.060203
vn 0.522086 0.522165 1.796416
v 0.315655 -0.216666 0.060058
vn 0.161193 0.161217 0.554640
v 0.315011 -0.216521 0.060203
vn 0.741097 0.306895 0.306881
v 0.315800 -0.217309 0.060203
vn 1.228699 0.508816 0.508792
v 0.316126 -0.217309 0.059415
vn 0.741137 0.306912 0.306898
v 0.315800 -0.216521 0.059415
vn 0.554682 0.161305 0.161297
v 0.315800 -0.216521 0.059415
vn 1.796088 0.522314 0.522289
v 0.315655 -0.216666 0.060058
vn 0.554715 0.161315 0.161307
v 0.315800 -0.217309 0.060203
vn 0.306979 0.741038 0.307011
v 0.315800 -0.216521 0.059415
vn 0.508901 1.228472 0.508954
v 0.315011 -0.216194 0.059415
vn 0.307016 0.741127 0.307047
v 0.315011 -0.216521 0.060203
vn 0.161197 0.554663 0.161214
v 0.315011 -0.216521 0.060203
vn 0.522080 1.796419 0.522134
v 0.315655 -0.216666 0.060058
vn 0.161190 0.554638 0.161207
v 0.315800 -0.216521 0.059415
vn -0.306972 0.306984 -0.741111
v 0.188655 -0.216521 0.023806
vn -0.508873 0.508892 -1.228554
v 0.188655 -0.217309 0.023479
vn -0.306959 0.306970 -0.741079
v 0.187866 -0.217309 0.023806
vn -0.161212 0.161218 -0.554722
v 0.187866 -0.217309 0.023806
vn -0.522042 0.522062 -1.796324
v 0.188011 -0.216666 0.023951
vn -0.161204 0.161210 -0.554695
v 0.188655 -0.216521 0.023806
vn -0.741075 0.306970 -0.306956
v 0.187866 -0.217309 0.023806
vn -1.228553 0.508895 -0.508871
v 0.187539 -0.217309 0.024594
vn -0.741115 0.306987 -0.306973
v 0.187866 -0.216521 0.024594
vn -0.554693 0.161209 -0.161201
v 0.187866 -0.216521 0.024594
vn -1.796325 0.522061 -0.522036
v 0.188011 -0.216666 0.023951
vn -0.554727 0.161218 -0.161211
v 0.187866 -0.217309 0.023806
vn -0.307032 0.741082 -0.307029
v 0.187866 -0.216521 0.024594
vn -0.508946 1.228442 -0.508941
v 0.188655 -0.216194 0.024594
vn -0.307028 0.741074 -0.307026
v 0.188655 -0.216521 0.023806
vn -0.161208 0.554718 -0.161207
v 0.188655 -0.216521 0.023806
vn -0.522036 1.796327 -0.522031
v 0.188011 -0.216666 0.023951
vn -0.161206 0.554712 -0.161205
v 0.187866 -0.216521 0.024594
vn 0.741137 0.306912 -0.306898
v 0.315800 -0.216521 0.024594
vn 1.228699 0.508816 -0.508792
v 0.316126 -0.217309 0.024594
vn 0.741097 0.306895 -0.306881
v 0.315800 -0.217309 0.023806
vn 0.554715 0.161315 -0.161307
v 0.315800 -0.217309 0.023806
vn 1.796088 0.522314 -0.522289
v 0.315655 -0.216666 0.023951
vn 0.554682 0.161305 -0.161297
v 0.315800 -0.216521 0.024594
vn 0.306906 0.306952 -0.741035
v 0.315800 -0.217309 0.023806
vn 0.508828 0.508905 -1.228584
v 0.315011 -0.217309 0.023479
vn 0.306959 0.307006 -0.741164
v 0.315011 -0.216521 0.023806
vn 0.161193 0.161217 -0.554640
v 0.315011 -0.216521 0.023806
vn 0.522086 0.522165 -1.796416
v 0.315655 -0.216666 0.023951
vn 0.161195 0.161220 -0.554648
v 0.315800 -0.217309 0.023806
vn 0.307016 0.741127 -0.307047
v 0.315011 -0.216521 0.023806
vn 0.508901 1.228472 -0.508954
v 0.315011 -0.216194 0.024594
vn 0.306979 0.741038 -0.307011
v 0.315800 -0.216521 0.024594
vn 0.161190 0.554638 -0.161207
v 0.315800 -0.216521 0.024594
vn 0.522079 1.796419 -0.522134
v 0.315655 -0.216666 0.023951
vn 0.161197 0.554663 -0.161214
v 0.315011 -0.216521 0.023806
vn -0.741092 -0.306966 0.306963
v 0.187866 -0.223590 0.060203
vn -1.228563 -0.508880 0.508875
v 0.187539 -0.223590 0.059415
vn -0.741101 -0.306969 0.306966
v 0.187866 -0.224378 0.059415
vn -0.554669 -0.161204 0.161202
v 0.187866 -0.224378 0.059415
vn -1.796356 -0.522075 0.522070
v 0.188011 -0.224233 0.060058
vn -0.554708 -0.161215 0.161213
v 0.187866 -0.223590 0.060203
vn -0.307007 -0.741090 0.307004
v 0.187866 -0.224378 0.059415
vn -0.508920 -1.228490 0.508915
v 0.188655 -0.224705 0.059415
vn -0.307003 -0.741081 0.307001
v 0.188655 -0.224378 0.060203
vn -0.161240 -0.554715 0.161239
v 0.188655 -0.224378 0.060203
vn -0.522120 -1.796248 0.522115
v 0.188011 -0.224233 0.060058
vn -0.161238 -0.554708 0.161237
v 0.187866 -0.224378 0.059415
vn -0.307095 -0.307095 0.741058
v 0.188655 -0.224378 0.060203
vn -0.509014 -0.509014 1.228312
v 0.188655 -0.223590 0.060530
vn -0.307095 -0.307095 0.741058
v 0.187866 -0.223590 0.060203
vn -0.161214 -0.161214 0.554703
v 0.187866 -0.223590 0.060203
vn -0.522076 -0.522076 1.796355
v 0.188011 -0.224233 0.060058
vn -0.161204 -0.161204 0.554671
v 0.188655 -0.224378 0.060203
vn 0.307003 -0.741081 0.307001
v 0.315011 -0.224378 0.060203
vn 0.508920 -1.228490 0.508915
v 0.315011 -0.224705 0.059415
vn 0.307007 -0.741090 0.307004
v 0.315799 -0.224378 0.059415
vn 0.161238 -0.554708 0.161237
v 0.315799 -0.224378 0.059415
vn 0.522120 -1.796248 0.522115
v 0.315655 -0.224233 0.060058
vn 0.161240 -0.554715 0.161239
v 0.315011 -0.224378 0.060203
vn 0.741101 -0.306969 0.306966
v 0.315799 -0.224378 0.059415
vn 1.228563 -0.508880 0.508875
v 0.316126 -0.223590 0.059415
vn 0.741092 -0.306966 0.306963
v 0.315799 -0.223590 0.060203
vn 0.554708 -0.161215 0.161213
v 0.315799 -0.223590 0.060203
vn 1.796356 -0.522075 0.522070
v 0.315655 -0.224233 0.060058
vn 0.554669 -0.161203 0.161202
v 0.315799 -0.224378 0.059415
vn 0.307095 -0.307095 0.741058
v 0.315799 -0.223590 0.060203
vn 0.509014 -0.509014 1.228312
v 0.315011 -0.223590 0.060530
vn 0.307095 -0.307095 0.741058
v 0.315011 -0.224378 0.060203
vn 0.161205 -0.161205 0.554671
v 0.315011 -0.224378 0.060203
vn 0.522076 -0.522076 1.796355
v 0.315655 -0.224233 0.060058
vn 0.161214 -0.161214 0.554703
v 0.315799 -0.223590 0.060203
vn -0.306966 -0.306966 -0.741097
v 0.187866 -0.223590 0.023806
vn -0.508877 -0.508877 -1.228564
v 0.188655 -0.223590 0.023479
vn -0.306966 -0.306966 -0.741097
v 0.188655 -0.224378 0.023806
vn -0.161205 -0.161205 -0.554671
v 0.188655 -0.224378 0.023806
vn -0.522076 -0.522076 -1.796355
v 0.188011 -0.224233 0.023951
vn -0.161214 -0.161214 -0.554703
v 0.187866 -0.223590 0.023806
vn -0.307003 -0.741081 -0.307001
v 0.188655 -0.224378 0.023806
vn -0.508920 -1.228490 -0.508915
v 0.188655 -0.224705 0.024594
vn -0.307007 -0.741090 -0.307004
v 0.187866 -0.224378 0.024594
vn -0.161238 -0.554708 -0.161237
v 0.187866 -0.224378 0.024594
vn -0.522120 -1.796248 -0.522115
v 0.188011 -0.224233 0.023951
vn -0.161240 -0.554715 -0.161239
v 0.188655 -0.224378 0.023806
vn -0.741101 -0.306969 -0.306966
v 0.187866 -0.224378 0.024594
vn -1.228563 -0.508880 -0.508875
v 0.187539 -0.223590 0.024594
vn -0.741092 -0.306966 -0.306963
v 0.187866 -0.223590 0.023806
vn -0.554708 -0.161215 -0.161213
v 0.187866 -0.223590 0.023806
vn -1.796356 -0.522075 -0.522070
v 0.188011 -0.224233 0.023951
vn -0.554669 -0.161203 -0.161202
v 0.187866 -0.224378 0.024594
vn 0.741092 -0.306966 -0.306963
v 0.315799 -0.223590 0.023806
vn 1.228563 -0.508880 -0.508875
v 0.316126 -0.223590 0.024594
vn 0.741101 -0.306969 -0.306966
v 0.315799 -0.224378 0.024594
vn 0.554669 -0.161204 -0.161202
v 0.315799 -0.224378 0.024594
vn 1.796356 -0.522075 -0.522070
v 0.315655 -0.224233 0.023951
vn 0.554708 -0.161215 -0.161213
v 0.315799 -0.223590 0.023806
vn 0.307007 -0.741090 -0.307004
v 0.315799 -0.224378 0.024594
vn 0.508920 -1.228490 -0.508915
v 0.315011 -0.224705 0.024594
vn 0.307003 -0.741081 -0.307001
v 0.315011 -0.224378 0.023806
vn 0.161240 -0.554715 -0.161239
v 0.315011 -0.224378 0.023806
vn 0.522120 -1.796248 -0.522115
v 0.315655 -0.224233 0.023951
vn 0.161238 -0.554708 -0.161237
v 0.315799 -0.224378 0.024594
vn 0.306966 -0.306966 -0.741097
v 0.315011 -0.224378 0.023806
vn 0.508877 -0.508877 -1.228564
v 0.315011 -0.223590 0.023479
vn 0.306966 -0.306966 -0.741097
v 0.315799 -0.223590 0.023806
vn 0.161214 -0.161214 -0.554703
v 0.315799 -0.223590 0.023806
vn 0.522076 -0.522076 -1.796355
v 0.315655 -0.224233 0.023951
vn 0.161204 -0.161204 -0.554671
v 0.315011 -0.224378 0.023806
# 324 vertices, 0 vertices normals

f 1//1 2//2 3//3
f 4//4 5//5 6//6
f 7//7 8//8 9//9
f 10//10 11//11 12//12
f 13//13 14//14 15//15
f 16//16 17//17 18//18
f 19//19 20//20 21//21
f 22//22 23//23 24//24
f 25//25 26//26 27//27
f 28//28 29//29 30//30
f 31//31 32//32 33//33
f 34//34 35//35 36//36
f 37//37 38//38 39//39
f 40//40 41//41 42//42
f 43//43 44//44 45//45
f 46//46 47//47 48//48
f 49//49 50//50 51//51
f 52//52 53//53 54//54
f 55//55 56//56 57//57
f 58//58 59//59 60//60
f 61//61 62//62 63//63
f 64//64 65//65 66//66
f 67//67 68//68 69//69
f 70//70 71//71 72//72
f 73//73 74//74 75//75
f 76//76 77//77 78//78
f 79//79 80//80 81//81
f 82//82 83//83 84//84
f 85//85 86//86 87//87
f 88//88 89//89 90//90
f 91//91 92//92 93//93
f 94//94 95//95 96//96
f 97//97 98//98 99//99
f 100//100 101//101 102//102
f 103//103 104//104 105//105
f 106//106 107//107 108//108
f 109//109 110//110 111//111
f 112//112 113//113 114//114
f 115//115 116//116 117//117
f 118//118 119//119 120//120
f 121//121 122//122 123//123
f 124//124 125//125 126//126
f 127//127 128//128 129//129
f 130//130 131//131 132//132
f 133//133 134//134 135//135
f 136//136 137//137 138//138
f 139//139 140//140 141//141
f 142//142 143//143 144//144
f 145//145 146//146 147//147
f 148//148 149//149 150//150
f 151//151 152//152 153//153
f 154//154 155//155 156//156
f 157//157 158//158 159//159
f 160//160 161//161 162//162
f 163//163 164//164 165//165
f 166//166 167//167 168//168
f 169//169 170//170 171//171
f 172//172 173//173 174//174
f 175//175 176//176 177//177
f 178//178 179//179 180//180
f 181//181 182//182 183//183
f 184//184 185//185 186//186
f 187//187 188//188 189//189
f 190//190 191//191 192//192
f 193//193 194//194 195//195
f 196//196 197//197 198//198
f 199//199 200//200 201//201
f 202//202 203//203 204//204
f 205//205 206//206 207//207
f 208//208 209//209 210//210
f 211//211 212//212 213//213
f 214//214 215//215 216//216
f 217//217 218//218 219//219
f 220//220 221//221 222//222
f 223//223 224//224 225//225
f 226//226 227//227 228//228
f 229//229 230//230 231//231
f 232//232 233//233 234//234
f 235//235 236//236 237//237
f 238//238 239//239 240//240
f 241//241 242//242 243//243
f 244//244 245//245 246//246
f 247//247 248//248 249//249
f 250//250 251//251 252//252
f 253//253 254//254 255//255
f 256//256 257//257 258//258
f 259//259 260//260 261//261
f 262//262 263//263 264//264
f 265//265 266//266 267//267
f 268//268 269//269 270//270
f 271//271 272//272 273//273
f 274//274 275//275 276//276
f 277//277 278//278 279//279
f 280//280 281//281 282//282
f 283//283 284//284 285//285
f 286//286 287//287 288//288
f 289//289 290//290 291//291
f 292//292 293//293 294//294
f 295//295 296//296 297//297
f 298//298 299//299 300//300
f 301//301 302//302 303//303
f 304//304 305//305 306//306
f 307//307 308//308 309//309
f 310//310 311//311 312//312
f 313//313 314//314 315//315
f 316//316 317//317 318//318
f 319//319 320//320 321//321
f 322//322 323//323 324//324
# 108 faces, 0 coords texture

# End of File
